<svg xmlns="http://www.w3.org/2000/svg" width="900" height="700" viewBox="0 0 900 700" role="img" aria-labelledby="t d">
<title id="t">Console homepage faceplate</title><desc id="d">Original source-agnostic Console Chrome 2001 exemplar.</desc>
<defs>
  <pattern id="dots" width="8" height="8" patternUnits="userSpaceOnUse"><circle cx="1" cy="1" r="1" fill="#3b4154" opacity=".55"/></pattern>
  <linearGradient id="plate" x1="0" x2="0" y1="0" y2="1"><stop offset="0" stop-color="#9fbee7"/><stop offset="1" stop-color="#7a8aba"/></linearGradient>
  <filter id="hardShadow"><feDropShadow dx="3" dy="3" stdDeviation="0" flood-color="#21242e" flood-opacity=".85"/></filter>
</defs>
<rect width="100%" height="100%" fill="#d7d7d7"/>
<g font-family="Arial, Helvetica, sans-serif" font-size="12" fill="#21242e">

<path d="M76 72 H790 L850 132 V622 Q850 652 820 652 H720 L690 620 H205 L172 652 H92 Q62 652 62 622 V112 Q62 72 76 72Z" fill="#7a8aba" stroke="#21242e" stroke-width="4"/>
<path d="M620 24 H818 L850 56 V128 L790 148 H620Z" fill="#8395c7" stroke="#3d4f97" stroke-width="2"/>
<text x="704" y="55" fill="#fff" font-weight="700">◆ SEARCH</text><rect x="708" y="72" width="94" height="18" fill="#fff" stroke="#5a5f8c"/><rect x="808" y="72" width="28" height="18" fill="#21242e"/><text x="814" y="85" fill="#fff" font-size="9">GO</text>
<path d="M82 72 H178 L198 96 H812 V128 H82Z" fill="#21242e"/><rect x="82" y="72" width="730" height="24" fill="url(#dots)"/>
<rect x="96" y="83" width="104" height="24" rx="13" fill="#fff" stroke="#e60012" stroke-width="2"/><text x="110" y="101" fill="#e60012" font-size="18" font-weight="900">PORT</text>
<text x="238" y="91" fill="#e48600" font-weight="900">PUZZLES</text><text x="340" y="91" fill="#e48600" font-weight="900">CLUBS</text><text x="438" y="91" fill="#e48600" font-weight="900">NEWS</text><text x="526" y="91" fill="#e48600" font-weight="900">SCORES</text>
<rect x="82" y="98" width="730" height="28" fill="#9fbee7"/><text x="118" y="116" font-weight="700">Parents</text><text x="205" y="116" font-weight="700">Help Desk</text><text x="306" y="116" font-weight="700">Events</text><text x="398" y="116" font-weight="700">Store</text><rect x="646" y="103" width="78" height="17" fill="#ecab37" stroke="#3d4f97"/><text x="662" y="116" font-size="10" font-weight="700">CODE BANK</text><rect x="730" y="103" width="70" height="17" fill="#ecab37" stroke="#3d4f97"/><text x="744" y="116" font-size="10" font-weight="700">FINDER</text>
<path d="M100 146 H682 V310 H100Z" fill="#acace7" stroke="#3d4f97" stroke-width="3"/><path d="M100 290 H682 V310 H100Z" fill="url(#dots)" opacity=".5"/><circle cx="200" cy="225" r="64" fill="#dedede" stroke="#fff" stroke-width="8"/><rect x="164" y="188" width="74" height="52" rx="5" fill="#21242e"/><rect x="178" y="199" width="46" height="28" fill="#206479"/><text x="318" y="202" fill="#fff" font-family="Arial Black, Impact" font-size="45" font-weight="900" filter="url(#hardShadow)">PUZZLE</text><text x="318" y="248" fill="#fff" font-family="Arial Black, Impact" font-size="52" font-weight="900" filter="url(#hardShadow)">PORT</text><circle cx="512" cy="258" r="18" fill="#f68d1f" stroke="#3d4f97" stroke-width="3"/><path d="M506 250 L519 258 L506 266Z" fill="#fff"/>
<g transform="translate(100 350)"><rect width="270" height="190" rx="6" fill="#9fbee7" stroke="#3d4f97" stroke-width="3"/><text x="16" y="24" font-weight="900">▤ OFFICIAL UPDATES</text><g transform="translate(14 38)"><rect width="242" height="31" rx="4" fill="#dedede" stroke="#5a5f8c"/><rect x="8" y="7" width="18" height="18" fill="#9fbee7" stroke="#21242e"/><text x="36" y="19" fill="#3d4f97" font-weight="700">Puzzle dispatch #1 cleared</text><rect x="222" y="6" width="18" height="18" fill="#f68d1f"/><path d="M228 10 L237 15 L228 20Z" fill="#fff"/></g><g transform="translate(14 74)"><rect width="242" height="31" rx="4" fill="#dedede" stroke="#5a5f8c"/><rect x="8" y="7" width="18" height="18" fill="#9fbee7" stroke="#21242e"/><text x="36" y="19" fill="#3d4f97" font-weight="700">Puzzle dispatch #2 cleared</text><rect x="222" y="6" width="18" height="18" fill="#f68d1f"/><path d="M228 10 L237 15 L228 20Z" fill="#fff"/></g><g transform="translate(14 110)"><rect width="242" height="31" rx="4" fill="#dedede" stroke="#5a5f8c"/><rect x="8" y="7" width="18" height="18" fill="#9fbee7" stroke="#21242e"/><text x="36" y="19" fill="#3d4f97" font-weight="700">Puzzle dispatch #3 cleared</text><rect x="222" y="6" width="18" height="18" fill="#f68d1f"/><path d="M228 10 L237 15 L228 20Z" fill="#fff"/></g><g transform="translate(14 146)"><rect width="242" height="31" rx="4" fill="#dedede" stroke="#5a5f8c"/><rect x="8" y="7" width="18" height="18" fill="#9fbee7" stroke="#21242e"/><text x="36" y="19" fill="#3d4f97" font-weight="700">Puzzle dispatch #4 cleared</text><rect x="222" y="6" width="18" height="18" fill="#f68d1f"/><path d="M228 10 L237 15 L228 20Z" fill="#fff"/></g></g>
<g transform="translate(390 350)"><rect width="190" height="190" rx="6" fill="#9fbee7" stroke="#3d4f97" stroke-width="3"/><text x="14" y="24" font-weight="900">▤ FEATURED LINKS</text><g transform="translate(18 40)"><rect width="68" height="50" fill="#21242e"/><rect x="6" y="6" width="56" height="30" fill="#206479"/><text y="62" font-size="9">maze.local</text></g><g transform="translate(100 40)"><rect width="68" height="50" fill="#21242e"/><rect x="6" y="6" width="56" height="30" fill="#a7282b"/><text y="62" font-size="9">combo.zone</text></g><g transform="translate(18 112)"><rect width="68" height="50" fill="#21242e"/><rect x="6" y="6" width="56" height="30" fill="#acace7"/><text y="62" font-size="9">bits.club</text></g><g transform="translate(100 112)"><rect width="68" height="50" fill="#21242e"/><rect x="6" y="6" width="56" height="30" fill="#ecab37"/><text y="62" font-size="9">pads.net</text></g></g>
<g transform="translate(604 166)"><rect width="154" height="122" fill="#21242e"/><rect width="154" height="122" fill="url(#dots)"/><text x="18" y="28" fill="#fff" font-weight="900">▣ LOGIN</text><text x="18" y="54" fill="#fff" font-weight="900">▣ JOIN CLUB</text><text x="18" y="80" fill="#fff" font-weight="900">? HELP</text></g><g transform="translate(604 350)"><rect width="154" height="190" rx="8" fill="#21242e"/><rect x="10" y="10" width="134" height="170" fill="#dedede"/><rect x="10" y="10" width="70" height="20" fill="#ecab37"/><text x="19" y="25" font-weight="900">PLAYER POLL</text><text x="22" y="54">Which maze opens?</text><circle cx="24" cy="80" r="6" fill="#fff" stroke="#5a5f8c"/><text x="38" y="84">Sky Gate</text><circle cx="24" cy="106" r="6" fill="#fff" stroke="#5a5f8c"/><text x="38" y="110">Moon Lock</text><rect x="54" y="140" width="70" height="22" fill="#f68d1f" stroke="#21242e"/><text x="70" y="155" fill="#fff" font-weight="900" font-size="10">SUBMIT</text></g>
<path d="M210 610 H690 L720 642 H178Z" fill="#21242e"/><text x="250" y="632" fill="#9fbee7" font-size="10">© FICTIONAL CLUB SYSTEM • STATUS READY • NO SOURCE ASSETS</text>

</g>
</svg>