<svg xmlns="http://www.w3.org/2000/svg" width="900" height="700" viewBox="0 0 900 700" role="img" aria-labelledby="t d">
<title id="t">Mobile stacked faceplate</title><desc id="d">Original source-agnostic Console Chrome 2001 exemplar.</desc>
<defs>
  <pattern id="dots" width="8" height="8" patternUnits="userSpaceOnUse"><circle cx="1" cy="1" r="1" fill="#3b4154" opacity=".55"/></pattern>
  <linearGradient id="plate" x1="0" x2="0" y1="0" y2="1"><stop offset="0" stop-color="#9fbee7"/><stop offset="1" stop-color="#7a8aba"/></linearGradient>
  <filter id="hardShadow"><feDropShadow dx="3" dy="3" stdDeviation="0" flood-color="#21242e" flood-opacity=".85"/></filter>
</defs>
<rect width="100%" height="100%" fill="#d7d7d7"/>
<g font-family="Arial, Helvetica, sans-serif" font-size="12" fill="#21242e">

<rect x="304" y="24" width="292" height="652" rx="34" fill="#21242e"/><path d="M324 54 H560 L576 70 V630 L554 652 H340 L324 636 Z" fill="#7a8aba" stroke="#3d4f97" stroke-width="3"/>
<rect x="340" y="76" width="220" height="32" fill="#21242e"/><rect x="340" y="76" width="220" height="32" fill="url(#dots)"/><text x="358" y="97" fill="#e48600" font-size="11" font-weight="900">CHIPTUNE HUB</text><rect x="474" y="84" width="64" height="16" fill="#ecab37"/><text x="486" y="96" font-size="8" font-weight="900">FINDER</text>
<rect x="340" y="112" width="220" height="22" fill="#9fbee7"/><text x="354" y="127" font-size="9" font-weight="900">Schedule</text><text x="420" y="127" font-size="9" font-weight="900">RSVP</text><text x="470" y="127" font-size="9" font-weight="900">Help</text>
<rect x="340" y="150" width="220" height="96" rx="6" fill="#acace7" stroke="#3d4f97" stroke-width="2"/><text x="356" y="188" fill="#fff" font-family="Arial Black, Impact" font-size="24" filter="url(#hardShadow)">BYTE NIGHT</text><circle cx="526" cy="206" r="14" fill="#f68d1f"/><path d="M522 199 L532 206 L522 213Z" fill="#fff"/>
<rect x="340" y="264" width="220" height="160" rx="6" fill="#9fbee7" stroke="#3d4f97" stroke-width="2"/><text x="354" y="284" font-size="10" font-weight="900">▤ SCHEDULE ROWS</text><g transform="translate(354 298)"><rect width="188" height="30" rx="3" fill="#dedede" stroke="#5a5f8c"/><text x="10" y="13" fill="#3d4f97" font-size="10" font-weight="700">7:00 Open</text><text x="10" y="25" font-size="8">Stage 1 • ready</text><rect x="166" y="7" width="14" height="14" fill="#f68d1f"/><path d="M170 10 L177 14 L170 18Z" fill="#fff"/></g><g transform="translate(354 336)"><rect width="188" height="30" rx="3" fill="#dedede" stroke="#5a5f8c"/><text x="10" y="13" fill="#3d4f97" font-size="10" font-weight="700">8:15 Duel</text><text x="10" y="25" font-size="8">Stage 2 • ready</text><rect x="166" y="7" width="14" height="14" fill="#f68d1f"/><path d="M170 10 L177 14 L170 18Z" fill="#fff"/></g><g transform="translate(354 374)"><rect width="188" height="30" rx="3" fill="#dedede" stroke="#5a5f8c"/><text x="10" y="13" fill="#3d4f97" font-size="10" font-weight="700">9:30 Final</text><text x="10" y="25" font-size="8">Stage 3 • ready</text><rect x="166" y="7" width="14" height="14" fill="#f68d1f"/><path d="M170 10 L177 14 L170 18Z" fill="#fff"/></g>
<rect x="340" y="442" width="220" height="114" rx="6" fill="#dedede" stroke="#3d4f97" stroke-width="2"/><rect x="340" y="442" width="220" height="24" fill="#7a8aba"/><text x="354" y="458" font-size="10" font-weight="900">▤ RSVP FORM</text><text x="354" y="488" font-size="10" font-weight="900">HANDLE</text><rect x="414" y="474" width="112" height="20" fill="#fff" stroke="#5a5f8c"/><rect x="438" y="514" width="82" height="24" fill="#f68d1f" stroke="#21242e"/><text x="456" y="530" fill="#fff" font-size="9" font-weight="900">JOIN</text>
<rect x="340" y="574" width="220" height="42" fill="#21242e"/><rect x="340" y="574" width="220" height="42" fill="url(#dots)"/><text x="356" y="599" fill="#9fbee7" font-size="9" font-weight="900">HELP RAIL STACKED BELOW CONTENT</text>

</g>
</svg>