<svg xmlns="http://www.w3.org/2000/svg" width="900" height="700" viewBox="0 0 900 700" role="img" aria-labelledby="t d">
<title id="t">Playful control panel form</title><desc id="d">Original source-agnostic Console Chrome 2001 exemplar.</desc>
<defs>
  <pattern id="dots" width="8" height="8" patternUnits="userSpaceOnUse"><circle cx="1" cy="1" r="1" fill="#3b4154" opacity=".55"/></pattern>
  <linearGradient id="plate" x1="0" x2="0" y1="0" y2="1"><stop offset="0" stop-color="#9fbee7"/><stop offset="1" stop-color="#7a8aba"/></linearGradient>
  <filter id="hardShadow"><feDropShadow dx="3" dy="3" stdDeviation="0" flood-color="#21242e" flood-opacity=".85"/></filter>
</defs>
<rect width="100%" height="100%" fill="#d7d7d7"/>
<g font-family="Arial, Helvetica, sans-serif" font-size="12" fill="#21242e">

<path d="M96 68 H790 L838 116 V626 L806 654 H94 L62 622 V104 Z" fill="#7a8aba" stroke="#21242e" stroke-width="4"/>
<rect x="102" y="88" width="696" height="34" fill="#21242e"/><rect x="102" y="88" width="696" height="34" fill="url(#dots)"/><text x="128" y="110" fill="#e48600" font-weight="900">ARCADE BETA PANEL</text><text x="680" y="110" fill="#fff" font-weight="900">? HELP</text>
<rect x="124" y="152" width="430" height="400" rx="8" fill="#dedede" stroke="#3d4f97" stroke-width="3"/><rect x="124" y="152" width="430" height="34" fill="#7a8aba"/><text x="142" y="174" font-weight="900">▤ REGISTER PLAYER</text><text x="150" y="220" font-weight="900">USERNAME</text><rect x="250" y="204" width="220" height="24" fill="#fff" stroke="#5a5f8c"/><text x="150" y="264" font-weight="900">FAVORITE GENRE</text><rect x="250" y="248" width="220" height="24" fill="#fff" stroke="#21242e"/><text x="260" y="265">Click to choose ▾</text><text x="150" y="308" font-weight="900">NOTIFY ME</text><circle cx="255" cy="304" r="7" fill="#fff" stroke="#5a5f8c"/><text x="270" y="308">Weekly beta drops</text><circle cx="255" cy="330" r="7" fill="#fff" stroke="#5a5f8c"/><text x="270" y="334">Tournament alerts</text><line x1="150" y1="366" x2="500" y2="366" stroke="#60619c" stroke-dasharray="2 4"/><text x="150" y="392" font-size="11">Note: Fictional access only. No source marks or assets.</text><rect x="150" y="430" width="110" height="28" fill="#ecab37" stroke="#3d4f97"/><text x="174" y="449" font-weight="900" font-size="10">SAVE DRAFT</text><rect x="372" y="430" width="104" height="28" fill="#f68d1f" stroke="#21242e"/><text x="396" y="449" fill="#fff" font-weight="900" font-size="10">SUBMIT</text>
<rect x="590" y="152" width="180" height="182" fill="#21242e"/><rect x="590" y="152" width="180" height="182" fill="url(#dots)"/><text x="612" y="184" fill="#fff" font-weight="900">▣ LOGIN</text><text x="612" y="218" fill="#fff" font-weight="900">▣ INVITE CODE</text><text x="612" y="252" fill="#fff" font-weight="900">? SUPPORT</text><rect x="590" y="360" width="180" height="192" rx="8" fill="#21242e"/><rect x="602" y="372" width="156" height="168" fill="#fff"/><rect x="602" y="372" width="78" height="22" fill="#ecab37"/><text x="612" y="388" font-size="10" font-weight="900">STATUS</text><text x="620" y="424" font-weight="900">READY</text><text x="620" y="448" font-size="11">All fields can be edited before launch.</text><rect x="620" y="500" width="54" height="18" fill="#fff" stroke="#21242e"/><text x="635" y="514" font-size="10" font-weight="900">OK</text>

</g>
</svg>