<svg xmlns="http://www.w3.org/2000/svg" width="900" height="700" viewBox="0 0 900 700" role="img" aria-labelledby="t d">
<title id="t">Retro scoreboard brief</title><desc id="d">Original source-agnostic Console Chrome 2001 exemplar.</desc>
<defs>
  <pattern id="dots" width="8" height="8" patternUnits="userSpaceOnUse"><circle cx="1" cy="1" r="1" fill="#3b4154" opacity=".55"/></pattern>
  <linearGradient id="plate" x1="0" x2="0" y1="0" y2="1"><stop offset="0" stop-color="#9fbee7"/><stop offset="1" stop-color="#7a8aba"/></linearGradient>
  <filter id="hardShadow"><feDropShadow dx="3" dy="3" stdDeviation="0" flood-color="#21242e" flood-opacity=".85"/></filter>
</defs>
<rect width="100%" height="100%" fill="#d7d7d7"/>
<g font-family="Arial, Helvetica, sans-serif" font-size="12" fill="#21242e">

<path d="M82 64 H804 L842 102 V622 L804 660 H82 L48 626 V102 Z" fill="#7a8aba" stroke="#21242e" stroke-width="4"/>
<g transform="translate(54 158)"><rect width="34" height="310" fill="#21242e"/><text transform="translate(12 270) rotate(-90)" fill="#9fbee7" font-size="10" font-weight="900">TOP PICKS • STATUS • RISK</text></g>
<rect x="96" y="88" width="700" height="34" fill="#21242e"/><rect x="96" y="88" width="700" height="34" fill="url(#dots)"/><text x="126" y="110" fill="#e48600" font-weight="900">WEEKEND TOURNAMENT BOARD</text>
<rect x="112" y="148" width="640" height="94" rx="8" fill="#acace7" stroke="#3d4f97" stroke-width="3"/><text x="136" y="194" fill="#fff" font-family="Arial Black, Impact" font-size="38" filter="url(#hardShadow)">FEATURE SKY CUP FIRST</text><circle cx="704" cy="194" r="20" fill="#f68d1f" stroke="#21242e" stroke-width="3"/><path d="M698 185 L713 194 L698 203Z" fill="#fff"/>
<rect x="112" y="268" width="414" height="268" rx="6" fill="#9fbee7" stroke="#3d4f97" stroke-width="3"/><text x="132" y="292" font-weight="900">▤ RANKED EVIDENCE</text><g transform="translate(132 312)"><rect width="360" height="40" rx="4" fill="#dedede" stroke="#5a5f8c"/><rect x="8" y="8" width="24" height="24" fill="#fff" stroke="#21242e"/><text x="15" y="25" font-weight="900">1</text><text x="46" y="18" fill="#3d4f97" font-weight="700">Sky Cup</text><text x="46" y="33" font-size="10">Highest signups and low setup risk</text><rect x="300" y="9" width="42" height="20" fill="#ecab37" stroke="#21242e"/><text x="310" y="23" font-size="9" font-weight="900">HOT</text></g><g transform="translate(132 366)"><rect width="360" height="40" rx="4" fill="#dedede" stroke="#5a5f8c"/><rect x="8" y="8" width="24" height="24" fill="#fff" stroke="#21242e"/><text x="15" y="25" font-weight="900">2</text><text x="46" y="18" fill="#3d4f97" font-weight="700">Drift Jam</text><text x="46" y="33" font-size="10">Strong teams; needs extra host</text><rect x="300" y="9" width="42" height="20" fill="#fff" stroke="#21242e"/><text x="310" y="23" font-size="9" font-weight="900">WAIT</text></g><g transform="translate(132 420)"><rect width="360" height="40" rx="4" fill="#dedede" stroke="#5a5f8c"/><rect x="8" y="8" width="24" height="24" fill="#fff" stroke="#21242e"/><text x="15" y="25" font-weight="900">3</text><text x="46" y="18" fill="#3d4f97" font-weight="700">Bit Rally</text><text x="46" y="33" font-size="10">Small but loyal community</text><rect x="300" y="9" width="42" height="20" fill="#ecab37" stroke="#21242e"/><text x="310" y="23" font-size="9" font-weight="900">OK</text></g><g transform="translate(132 474)"><rect width="360" height="40" rx="4" fill="#dedede" stroke="#5a5f8c"/><rect x="8" y="8" width="24" height="24" fill="#fff" stroke="#21242e"/><text x="15" y="25" font-weight="900">4</text><text x="46" y="18" fill="#3d4f97" font-weight="700">Moon Run</text><text x="46" y="33" font-size="10">Delay due to bracket issue</text><rect x="300" y="9" width="42" height="20" fill="#fff" stroke="#21242e"/><text x="310" y="23" font-size="9" font-weight="900">RISK</text></g>
<rect x="558" y="268" width="194" height="268" rx="8" fill="#21242e"/><rect x="570" y="280" width="170" height="244" fill="#fff"/><rect x="570" y="280" width="84" height="22" fill="#ecab37"/><text x="582" y="296" font-size="10" font-weight="900">NEXT ACTION</text><text x="590" y="330" font-weight="900">LOCK FEATURE</text><text x="590" y="356" font-size="11">Approve top three, then post rail update.</text><rect x="590" y="420" width="86" height="28" fill="#f68d1f" stroke="#21242e"/><text x="608" y="439" fill="#fff" font-size="10" font-weight="900">LAUNCH</text><path d="M200 604 H690 L716 636 H174Z" fill="#21242e"/><text x="250" y="626" fill="#9fbee7" font-size="10">BRIEF MODE • DECISION ROWS • GENERIC STATUS STAMPS</text>

</g>
</svg>