<svg xmlns="http://www.w3.org/2000/svg" width="900" height="700" viewBox="0 0 900 700" role="img" aria-labelledby="t d">
<title id="t">Retro catalog directory</title><desc id="d">Original source-agnostic Console Chrome 2001 exemplar.</desc>
<defs>
  <pattern id="dots" width="8" height="8" patternUnits="userSpaceOnUse"><circle cx="1" cy="1" r="1" fill="#3b4154" opacity=".55"/></pattern>
  <linearGradient id="plate" x1="0" x2="0" y1="0" y2="1"><stop offset="0" stop-color="#9fbee7"/><stop offset="1" stop-color="#7a8aba"/></linearGradient>
  <filter id="hardShadow"><feDropShadow dx="3" dy="3" stdDeviation="0" flood-color="#21242e" flood-opacity=".85"/></filter>
</defs>
<rect width="100%" height="100%" fill="#d7d7d7"/>
<g font-family="Arial, Helvetica, sans-serif" font-size="12" fill="#21242e">

<path d="M78 58 H822 L852 88 V628 L818 662 H82 L48 628 V92 Z" fill="#7a8aba" stroke="#21242e" stroke-width="4"/>
<rect x="84" y="78" width="732" height="32" fill="#21242e"/><rect x="84" y="78" width="732" height="32" fill="url(#dots)"/><text x="108" y="100" fill="#e48600" font-weight="900">INDIE CART ARCHIVE</text><text x="306" y="100" fill="#e48600" font-weight="900">LATEST</text><text x="402" y="100" fill="#e48600" font-weight="900">RANKS</text><rect x="610" y="85" width="120" height="18" fill="#fff" stroke="#5a5f8c"/><rect x="736" y="85" width="46" height="18" fill="#ecab37" stroke="#3d4f97"/><text x="748" y="98" font-size="10" font-weight="900">FIND</text>
<rect x="100" y="130" width="235" height="470" rx="6" fill="#9fbee7" stroke="#3d4f97" stroke-width="3"/><text x="116" y="154" font-weight="900">▤ FILTER DECK</text><rect x="116" y="172" width="120" height="18" fill="#fff" stroke="#5a5f8c"/><rect x="244" y="172" width="54" height="18" fill="#ecab37" stroke="#3d4f97"/><text x="254" y="185" font-size="10" font-weight="900">SORT</text><text x="116" y="220" font-weight="900">FEATURED CARTS</text><g transform="translate(116 238)"><rect width="80" height="70" rx="4" fill="#21242e"/><rect x="8" y="8" width="64" height="40" fill="#206479"/><rect x="54" y="52" width="18" height="14" fill="#f68d1f"/><path d="M60 55 L68 59 L60 63Z" fill="#fff"/><text y="88" font-size="10">CART-01</text></g><g transform="translate(216 238)"><rect width="80" height="70" rx="4" fill="#21242e"/><rect x="8" y="8" width="64" height="40" fill="#a7282b"/><rect x="54" y="52" width="18" height="14" fill="#f68d1f"/><path d="M60 55 L68 59 L60 63Z" fill="#fff"/><text y="88" font-size="10">CART-02</text></g><g transform="translate(116 350)"><rect width="80" height="70" rx="4" fill="#21242e"/><rect x="8" y="8" width="64" height="40" fill="#acace7"/><rect x="54" y="52" width="18" height="14" fill="#f68d1f"/><path d="M60 55 L68 59 L60 63Z" fill="#fff"/><text y="88" font-size="10">CART-03</text></g><g transform="translate(216 350)"><rect width="80" height="70" rx="4" fill="#21242e"/><rect x="8" y="8" width="64" height="40" fill="#ecab37"/><rect x="54" y="52" width="18" height="14" fill="#f68d1f"/><path d="M60 55 L68 59 L60 63Z" fill="#fff"/><text y="88" font-size="10">CART-04</text></g>
<rect x="360" y="130" width="326" height="470" rx="6" fill="#9fbee7" stroke="#3d4f97" stroke-width="3"/><text x="378" y="154" font-weight="900">▤ LATEST UPDATE ROWS</text><g transform="translate(378 176)"><rect width="282" height="44" rx="4" fill="#dedede" stroke="#5a5f8c"/><rect x="8" y="8" width="28" height="28" fill="#9fbee7" stroke="#21242e"/><text x="48" y="19" fill="#3d4f97" font-weight="700">Archive item 1 ready for play</text><text x="48" y="34" font-size="10">MODE 2 • STATUS VERIFIED</text><rect x="252" y="11" width="20" height="20" fill="#f68d1f"/><path d="M258 15 L268 21 L258 27Z" fill="#fff"/></g><g transform="translate(378 234)"><rect width="282" height="44" rx="4" fill="#dedede" stroke="#5a5f8c"/><rect x="8" y="8" width="28" height="28" fill="#ecab37" stroke="#21242e"/><text x="48" y="19" fill="#3d4f97" font-weight="700">Archive item 2 ready for play</text><text x="48" y="34" font-size="10">MODE 3 • STATUS VERIFIED</text><rect x="252" y="11" width="20" height="20" fill="#f68d1f"/><path d="M258 15 L268 21 L258 27Z" fill="#fff"/></g><g transform="translate(378 292)"><rect width="282" height="44" rx="4" fill="#dedede" stroke="#5a5f8c"/><rect x="8" y="8" width="28" height="28" fill="#acace7" stroke="#21242e"/><text x="48" y="19" fill="#3d4f97" font-weight="700">Archive item 3 ready for play</text><text x="48" y="34" font-size="10">MODE 4 • STATUS VERIFIED</text><rect x="252" y="11" width="20" height="20" fill="#f68d1f"/><path d="M258 15 L268 21 L258 27Z" fill="#fff"/></g><g transform="translate(378 350)"><rect width="282" height="44" rx="4" fill="#dedede" stroke="#5a5f8c"/><rect x="8" y="8" width="28" height="28" fill="#206479" stroke="#21242e"/><text x="48" y="19" fill="#3d4f97" font-weight="700">Archive item 4 ready for play</text><text x="48" y="34" font-size="10">MODE 5 • STATUS VERIFIED</text><rect x="252" y="11" width="20" height="20" fill="#f68d1f"/><path d="M258 15 L268 21 L258 27Z" fill="#fff"/></g><g transform="translate(378 408)"><rect width="282" height="44" rx="4" fill="#dedede" stroke="#5a5f8c"/><rect x="8" y="8" width="28" height="28" fill="#a7282b" stroke="#21242e"/><text x="48" y="19" fill="#3d4f97" font-weight="700">Archive item 5 ready for play</text><text x="48" y="34" font-size="10">MODE 6 • STATUS VERIFIED</text><rect x="252" y="11" width="20" height="20" fill="#f68d1f"/><path d="M258 15 L268 21 L258 27Z" fill="#fff"/></g><g transform="translate(378 466)"><rect width="282" height="44" rx="4" fill="#dedede" stroke="#5a5f8c"/><rect x="8" y="8" width="28" height="28" fill="#dedede" stroke="#21242e"/><text x="48" y="19" fill="#3d4f97" font-weight="700">Archive item 6 ready for play</text><text x="48" y="34" font-size="10">MODE 7 • STATUS VERIFIED</text><rect x="252" y="11" width="20" height="20" fill="#f68d1f"/><path d="M258 15 L268 21 L258 27Z" fill="#fff"/></g>
<rect x="708" y="130" width="110" height="260" rx="8" fill="#21242e"/><rect x="718" y="142" width="90" height="238" fill="#fff"/><rect x="718" y="142" width="70" height="20" fill="#ecab37"/><text x="727" y="157" font-size="10" font-weight="900">DETAILS</text><text x="730" y="190" font-weight="900">CART-03</text><rect x="730" y="206" width="48" height="48" fill="#acace7" stroke="#21242e"/><text x="730" y="278" font-size="10">Puzzle logic</text><text x="730" y="296" font-size="10">2 players</text><rect x="730" y="318" width="58" height="22" fill="#f68d1f"/><text x="742" y="333" fill="#fff" font-size="10" font-weight="900">OPEN</text>
<path d="M170 620 H720 L746 646 H144Z" fill="#21242e"/><text x="238" y="640" fill="#9fbee7" font-size="10">FILTERED DIRECTORY • CLICK ORANGE CHIPS TO ADVANCE</text>

</g>
</svg>